<svg xmlns="http://www.w3.org/2000/svg" width="820" height="620" viewBox="0 0 820 620" font-family="-apple-system,BlinkMacSystemFont,'Segoe UI',Helvetica,Arial,sans-serif" font-size="11">
<text x="20" y="24" font-size="13.5" font-weight="600" fill="#8b949e">DeepSeek-V3 shapes, M = 64 (K × N vary)</text>
<text x="20" y="40" font-size="10.5" fill="#9aa4ae">GFLOP/s, single thread, Apple M4 · 27 Sep 2026, one session, mean of 2 runs · y axis starts at 300, not 0</text>
<line x1="62.0" y1="568.0" x2="688.0" y2="568.0" stroke="#d0d7de" stroke-width="1" opacity="0.38"/>
<text x="53" y="571.5" text-anchor="end" font-size="10" fill="#8b949e">300</text>
<line x1="62.0" y1="455.6" x2="688.0" y2="455.6" stroke="#d0d7de" stroke-width="1" opacity="0.38"/>
<text x="53" y="459.1" text-anchor="end" font-size="10" fill="#8b949e">500</text>
<line x1="62.0" y1="343.1" x2="688.0" y2="343.1" stroke="#d0d7de" stroke-width="1" opacity="0.38"/>
<text x="53" y="346.6" text-anchor="end" font-size="10" fill="#8b949e">700</text>
<line x1="62.0" y1="230.7" x2="688.0" y2="230.7" stroke="#d0d7de" stroke-width="1" opacity="0.38"/>
<text x="53" y="234.2" text-anchor="end" font-size="10" fill="#8b949e">900</text>
<line x1="62.0" y1="118.2" x2="688.0" y2="118.2" stroke="#d0d7de" stroke-width="1" opacity="0.38"/>
<text x="53" y="121.7" text-anchor="end" font-size="10" fill="#8b949e">1100</text>
<text x="96.0" y="207.7" text-anchor="middle" font-size="9.5" fill="#0969da">925</text>
<text x="96.0" y="153.2" text-anchor="middle" font-size="9.5" fill="#9a6700">1022</text>
<text x="96.0" y="187.0" text-anchor="middle" font-size="9.5" fill="#57606a">962</text>
<text x="96.0" y="455.9" text-anchor="middle" font-size="9.5" fill="#bc4c00">483</text>
<text x="207.6" y="223.7" text-anchor="middle" font-size="9.5" fill="#0969da">896</text>
<text x="207.6" y="256.5" text-anchor="middle" font-size="9.5" fill="#9a6700">838</text>
<text x="207.6" y="397.3" text-anchor="middle" font-size="9.5" fill="#57606a">588</text>
<text x="207.6" y="505.1" text-anchor="middle" font-size="9.5" fill="#bc4c00">396</text>
<text x="319.2" y="194.1" text-anchor="middle" font-size="9.5" fill="#0969da">949</text>
<text x="319.2" y="250.5" text-anchor="middle" font-size="9.5" fill="#9a6700">849</text>
<text x="319.2" y="394.3" text-anchor="middle" font-size="9.5" fill="#57606a">593</text>
<text x="319.2" y="522.2" text-anchor="middle" font-size="9.5" fill="#bc4c00">365</text>
<text x="430.8" y="209.6" text-anchor="middle" font-size="9.5" fill="#0969da">921</text>
<text x="430.8" y="240.6" text-anchor="middle" font-size="9.5" fill="#9a6700">866</text>
<text x="430.8" y="376.9" text-anchor="middle" font-size="9.5" fill="#57606a">624</text>
<text x="430.8" y="513.6" text-anchor="middle" font-size="9.5" fill="#bc4c00">381</text>
<text x="542.4" y="224.7" text-anchor="middle" font-size="9.5" fill="#0969da">895</text>
<text x="542.4" y="203.0" text-anchor="middle" font-size="9.5" fill="#9a6700">933</text>
<text x="542.4" y="397.2" text-anchor="middle" font-size="9.5" fill="#57606a">588</text>
<text x="542.4" y="495.9" text-anchor="middle" font-size="9.5" fill="#bc4c00">412</text>
<text x="654.0" y="221.6" text-anchor="middle" font-size="9.5" fill="#0969da">900</text>
<text x="654.0" y="237.1" text-anchor="middle" font-size="9.5" fill="#9a6700">885</text>
<text x="654.0" y="366.1" text-anchor="middle" font-size="9.5" fill="#57606a">643</text>
<text x="654.0" y="496.6" text-anchor="middle" font-size="9.5" fill="#bc4c00">411</text>
<polyline points="96.0,216.7 207.6,232.7 319.2,203.1 430.8,218.6 542.4,233.7 654.0,230.6" fill="none" stroke="#0969da" stroke-width="2.2" stroke-linejoin="round" stroke-linecap="round"/>
<circle cx="96.0" cy="216.7" r="3.6" fill="#0969da"/>
<circle cx="207.6" cy="232.7" r="3.6" fill="#0969da"/>
<circle cx="319.2" cy="203.1" r="3.6" fill="#0969da"/>
<circle cx="430.8" cy="218.6" r="3.6" fill="#0969da"/>
<circle cx="542.4" cy="233.7" r="3.6" fill="#0969da"/>
<circle cx="654.0" cy="230.6" r="3.6" fill="#0969da"/>
<polyline points="96.0,162.2 207.6,265.5 319.2,259.5 430.8,249.6 542.4,212.0 654.0,239.0" fill="none" stroke="#9a6700" stroke-width="1.7" stroke-linejoin="round" stroke-linecap="round"/>
<circle cx="96.0" cy="162.2" r="3.6" fill="#9a6700"/>
<circle cx="207.6" cy="265.5" r="3.6" fill="#9a6700"/>
<circle cx="319.2" cy="259.5" r="3.6" fill="#9a6700"/>
<circle cx="430.8" cy="249.6" r="3.6" fill="#9a6700"/>
<circle cx="542.4" cy="212.0" r="3.6" fill="#9a6700"/>
<circle cx="654.0" cy="239.0" r="3.6" fill="#9a6700"/>
<polyline points="96.0,196.0 207.6,406.3 319.2,403.3 430.8,385.9 542.4,406.2 654.0,375.1" fill="none" stroke="#57606a" stroke-width="1.7" stroke-linejoin="round" stroke-linecap="round"/>
<circle cx="96.0" cy="196.0" r="3.6" fill="#57606a"/>
<circle cx="207.6" cy="406.3" r="3.6" fill="#57606a"/>
<circle cx="319.2" cy="403.3" r="3.6" fill="#57606a"/>
<circle cx="430.8" cy="385.9" r="3.6" fill="#57606a"/>
<circle cx="542.4" cy="406.2" r="3.6" fill="#57606a"/>
<circle cx="654.0" cy="375.1" r="3.6" fill="#57606a"/>
<polyline points="96.0,464.9 207.6,514.1 319.2,531.2 430.8,522.6 542.4,504.9 654.0,505.6" fill="none" stroke="#bc4c00" stroke-width="1.7" stroke-linejoin="round" stroke-linecap="round"/>
<circle cx="96.0" cy="464.9" r="3.6" fill="#bc4c00"/>
<circle cx="207.6" cy="514.1" r="3.6" fill="#bc4c00"/>
<circle cx="319.2" cy="531.2" r="3.6" fill="#bc4c00"/>
<circle cx="430.8" cy="522.6" r="3.6" fill="#bc4c00"/>
<circle cx="542.4" cy="504.9" r="3.6" fill="#bc4c00"/>
<circle cx="654.0" cy="505.6" r="3.6" fill="#bc4c00"/>
<text x="700" y="234.1" font-size="11" font-weight="400" fill="#0969da">MaxMulSK v5</text>
<text x="700" y="249.6" font-size="11" font-weight="400" fill="#9a6700">MpGEMM</text>
<text x="700" y="378.6" font-size="11" font-weight="400" fill="#57606a">Accelerate</text>
<text x="700" y="509.1" font-size="11" font-weight="400" fill="#bc4c00">OpenBLAS</text>
<text x="96.0" y="588.0" text-anchor="middle" font-size="10.5" fill="#8b949e">7168×2112</text>
<text x="207.6" y="588.0" text-anchor="middle" font-size="10.5" fill="#8b949e">1536×24576</text>
<text x="319.2" y="588.0" text-anchor="middle" font-size="10.5" fill="#8b949e">512×32768</text>
<text x="430.8" y="588.0" text-anchor="middle" font-size="10.5" fill="#8b949e">16384×7168</text>
<text x="542.4" y="588.0" text-anchor="middle" font-size="10.5" fill="#8b949e">7168×4096</text>
<text x="654.0" y="588.0" text-anchor="middle" font-size="10.5" fill="#8b949e">2048×7168</text>
<line x1="62.0" y1="568.0" x2="688.0" y2="568.0" stroke="#8b949e" stroke-width="1" opacity="0.55"/>
</svg>
