<svg xmlns="http://www.w3.org/2000/svg" width="820" height="400" viewBox="0 0 820 400" font-family="-apple-system,BlinkMacSystemFont,'Segoe UI',Helvetica,Arial,sans-serif" font-size="11">
<text x="20" y="24" font-size="13.5" font-weight="600" fill="#8b949e">Square GEMM: MaxMulSK v4c path vs Apple Accelerate</text>
<text x="20" y="40" font-size="10.5" fill="#9aa4ae">GFLOP/s, single thread, Apple M4 · 13 Sep 2026, one session, median of 5 · y axis starts at 1100, not 0</text>
<line x1="62.0" y1="348.0" x2="688.0" y2="348.0" stroke="#d0d7de" stroke-width="1" opacity="0.38"/>
<text x="53" y="351.5" text-anchor="end" font-size="10" fill="#8b949e">1100</text>
<line x1="62.0" y1="276.5" x2="688.0" y2="276.5" stroke="#d0d7de" stroke-width="1" opacity="0.38"/>
<text x="53" y="280.0" text-anchor="end" font-size="10" fill="#8b949e">1300</text>
<line x1="62.0" y1="205.0" x2="688.0" y2="205.0" stroke="#d0d7de" stroke-width="1" opacity="0.38"/>
<text x="53" y="208.5" text-anchor="end" font-size="10" fill="#8b949e">1500</text>
<line x1="62.0" y1="133.5" x2="688.0" y2="133.5" stroke="#d0d7de" stroke-width="1" opacity="0.38"/>
<text x="53" y="137.0" text-anchor="end" font-size="10" fill="#8b949e">1700</text>
<line x1="62.0" y1="62.0" x2="688.0" y2="62.0" stroke="#d0d7de" stroke-width="1" opacity="0.38"/>
<text x="53" y="65.5" text-anchor="end" font-size="10" fill="#8b949e">1900</text>
<text x="96.0" y="315.6" text-anchor="middle" font-size="9.5" fill="#0969da">1165</text>
<text x="96.0" y="92.5" text-anchor="middle" font-size="9.5" fill="#57606a">1790</text>
<text x="235.5" y="159.5" text-anchor="middle" font-size="9.5" fill="#0969da">1602</text>
<text x="235.5" y="96.4" text-anchor="middle" font-size="9.5" fill="#57606a">1779</text>
<text x="375.0" y="120.7" text-anchor="middle" font-size="9.5" fill="#0969da">1710</text>
<text x="375.0" y="135.2" text-anchor="middle" font-size="9.5" fill="#57606a">1677</text>
<text x="514.5" y="140.1" text-anchor="middle" font-size="9.5" fill="#0969da">1680</text>
<text x="514.5" y="125.6" text-anchor="middle" font-size="9.5" fill="#57606a">1697</text>
<text x="654.0" y="132.4" text-anchor="middle" font-size="9.5" fill="#0969da">1678</text>
<text x="654.0" y="159.1" text-anchor="middle" font-size="9.5" fill="#57606a">1603</text>
<polyline points="96.0,324.6 235.5,168.5 375.0,129.7 514.5,140.7 654.0,141.4" fill="none" stroke="#0969da" stroke-width="2.2" stroke-linejoin="round" stroke-linecap="round"/>
<circle cx="96.0" cy="324.6" r="4.2" fill="#0969da"/>
<circle cx="235.5" cy="168.5" r="4.2" fill="#0969da"/>
<circle cx="375.0" cy="129.7" r="4.2" fill="#0969da"/>
<circle cx="514.5" cy="140.7" r="4.2" fill="#0969da"/>
<circle cx="654.0" cy="141.4" r="4.2" fill="#0969da"/>
<polyline points="96.0,101.5 235.5,105.4 375.0,141.8 514.5,134.6 654.0,168.1" fill="none" stroke="#57606a" stroke-width="1.7" stroke-linejoin="round" stroke-linecap="round"/>
<circle cx="96.0" cy="101.5" r="3.6" fill="#57606a"/>
<circle cx="235.5" cy="105.4" r="3.6" fill="#57606a"/>
<circle cx="375.0" cy="141.8" r="3.6" fill="#57606a"/>
<circle cx="514.5" cy="134.6" r="3.6" fill="#57606a"/>
<circle cx="654.0" cy="168.1" r="3.6" fill="#57606a"/>
<text x="700" y="144.9" font-size="11" font-weight="600" fill="#0969da">MaxMulSK</text>
<text x="700" y="171.6" font-size="11" font-weight="400" fill="#57606a">Accelerate</text>
<text x="96.0" y="368.0" text-anchor="middle" font-size="10.5" fill="#8b949e">256³</text>
<text x="235.5" y="368.0" text-anchor="middle" font-size="10.5" fill="#8b949e">512³</text>
<text x="375.0" y="368.0" text-anchor="middle" font-size="10.5" fill="#8b949e">1024³</text>
<text x="514.5" y="368.0" text-anchor="middle" font-size="10.5" fill="#8b949e">2048³</text>
<text x="654.0" y="368.0" text-anchor="middle" font-size="10.5" fill="#8b949e">4096³</text>
<line x1="62.0" y1="348.0" x2="688.0" y2="348.0" stroke="#8b949e" stroke-width="1" opacity="0.55"/>
</svg>
